<?xml version="1.0" encoding="UTF-8"?>
<svg version="1.1" xmlns="http://www.w3.org/2000/svg" width="1593" height="672">
<path d="M0 0 C525.69 0 1051.38 0 1593 0 C1593 221.76 1593 443.52 1593 672 C1067.31 672 541.62 672 0 672 C0 450.24 0 228.48 0 0 Z " fill="#191918" transform="translate(0,0)"/>
<path d="M0 0 C0.33 0 0.66 0 1 0 C1 15.84 1 31.68 1 48 C-14.56163473 44.04365219 -14.56163473 44.04365219 -21.04804993 42.3306427 C-28.26708771 40.42714662 -35.49365097 38.6398429 -42.78439331 37.03060913 C-46.75074109 36.14393169 -50.70169065 35.19768775 -54.65222168 34.24328613 C-56.57357386 33.7938343 -58.50115644 33.37014027 -60.4342041 32.97399902 C-76.58173953 29.64190117 -76.58173953 29.64190117 -81.42138672 22.68310547 C-83.67756235 18.89259012 -85.54301968 14.98326807 -87.17930603 10.88877869 C-88.04908914 8.7344385 -88.04908914 8.7344385 -90 6 C-89.625 3.8125 -89.625 3.8125 -89 2 C-86.01958108 2.72430036 -83.04076273 3.45442284 -80.0625 4.1875 C-79.25103516 4.38408203 -78.43957031 4.58066406 -77.60351562 4.78320312 C-72.08017781 6.14828662 -66.62240609 7.68705034 -61.171875 9.31640625 C-50.90904227 12.37642385 -40.55231619 15.06025308 -30.1875 17.75 C-28.27532865 18.24846022 -26.36321894 18.74715699 -24.45117188 19.24609375 C-15.2344121 21.65753925 -15.2344121 21.65753925 -6 24 C-5.60167969 22.15535156 -5.60167969 22.15535156 -5.1953125 20.2734375 C-4.83871309 18.64058755 -4.48193267 17.00777713 -4.125 15.375 C-3.95097656 14.56675781 -3.77695313 13.75851563 -3.59765625 12.92578125 C-2.62929775 8.51437032 -1.5300773 4.25940436 0 0 Z " fill="#1F1F20" transform="translate(1592,99)"/>
<path d="M0 0 C2.31 0 4.62 0 7 0 C7.33 1.32 7.66 2.64 8 4 C9.11375 3.95875 10.2275 3.9175 11.375 3.875 C15 4 15 4 17 6 C16.625 9.625 16.625 9.625 16 13 C17.32 13.33 18.64 13.66 20 14 C19.67 15.32 19.34 16.64 19 18 C19.91523437 17.97679687 20.83046875 17.95359375 21.7734375 17.9296875 C22.96195313 17.91164063 24.15046875 17.89359375 25.375 17.875 C27.15003906 17.84019531 27.15003906 17.84019531 28.9609375 17.8046875 C32 18 32 18 34 20 C34.24291992 22.50610352 34.24291992 22.50610352 34.23046875 25.62890625 C34.22853516 26.74587891 34.22660156 27.86285156 34.22460938 29.01367188 C34.20624023 30.7703418 34.20624023 30.7703418 34.1875 32.5625 C34.18685547 33.73748047 34.18621094 34.91246094 34.18554688 36.12304688 C34.14012141 44.85987859 34.14012141 44.85987859 33 46 C31.08541718 46.09971786 29.16717683 46.13080589 27.25 46.1328125 C26.0846875 46.13410156 24.919375 46.13539063 23.71875 46.13671875 C22.4915625 46.13285156 21.264375 46.12898438 20 46.125 C18.15921875 46.13080078 18.15921875 46.13080078 16.28125 46.13671875 C14.53328125 46.13478516 14.53328125 46.13478516 12.75 46.1328125 C11.67234375 46.13168457 10.5946875 46.13055664 9.484375 46.12939453 C7 46 7 46 6 45 C5.76636119 43.15108054 5.58696365 41.29511969 5.4375 39.4375 C5.35371094 38.42558594 5.26992187 37.41367187 5.18359375 36.37109375 C5.12300781 35.58863281 5.06242187 34.80617188 5 34 C3.35 33.67 1.7 33.34 0 33 C0 32.01 0 31.02 0 30 C-1.918125 30.061875 -1.918125 30.061875 -3.875 30.125 C-6.0546875 30.1953125 -6.0546875 30.1953125 -8 30 C-8.66 29.34 -9.32 28.68 -10 28 C-9.96712417 25.27130593 -9.43602229 22.7033382 -9 20 C-10.32 20 -11.64 20 -13 20 C-13 18.02 -13 16.04 -13 14 C-11.68 13.67 -10.36 13.34 -9 13 C-9.20625 11.88625 -9.4125 10.7725 -9.625 9.625 C-9.74875 8.42875 -9.8725 7.2325 -10 6 C-8 4 -8 4 -6.0546875 3.8046875 C-4.03645833 3.86979167 -2.01822917 3.93489583 0 4 C0 2.68 0 1.36 0 0 Z " fill="#272727" transform="translate(1171,310)"/>
<path d="M0 0 C0.02578125 0.72703125 0.0515625 1.4540625 0.078125 2.203125 C0.46730176 9.10216752 1.7184811 14.94145887 4.16015625 21.40625 C5 24 5 24 5 28 C5.99 28.33 6.98 28.66 8 29 C7.95703125 30.828125 7.95703125 30.828125 7 33 C4.51530091 34.1389453 2.28325435 34.97782986 -0.3125 35.75 C-1.32860352 36.08064453 -1.32860352 36.08064453 -2.36523438 36.41796875 C-5.76076088 37.4867464 -8.40800513 38 -12 38 C-11.34 39.98 -10.68 41.96 -10 44 C-11.32 44 -12.64 44 -14 44 C-14 42.35 -14 40.7 -14 39 C-16.97 39.495 -16.97 39.495 -20 40 C-17.10764186 38.07176124 -14.97140935 37.25666356 -11.67578125 36.2734375 C-10.64775391 35.9640625 -9.61972656 35.6546875 -8.56054688 35.3359375 C-7.48869141 35.01882813 -6.41683594 34.70171875 -5.3125 34.375 C-4.22904297 34.05015625 -3.14558594 33.7253125 -2.02929688 33.390625 C0.64583071 32.5892652 3.32226138 31.79258275 6 31 C-2.3418693 32.45424322 -10.38212713 34.74184852 -18.5 37.125 C-21.00950271 37.85999815 -23.52007843 38.59100416 -26.03125 39.3203125 C-27.13017578 39.64273926 -28.22910156 39.96516602 -29.36132812 40.29736328 C-32 41 -32 41 -34 41 C-34 41.66 -34 42.32 -34 43 C-33.01 43.33 -32.02 43.66 -31 44 C-32.32 44 -33.64 44 -35 44 C-35.19335938 42.92621094 -35.38671875 41.85242188 -35.5859375 40.74609375 C-35.84877718 39.30986267 -36.11180824 37.8736666 -36.375 36.4375 C-36.50132812 35.73302734 -36.62765625 35.02855469 -36.7578125 34.30273438 C-37.39146703 30.86515856 -38.12069116 27.58614061 -39.1015625 24.22265625 C-40 21 -40 21 -40 17 C-40.99 16.67 -41.98 16.34 -43 16 C-43 14.68 -43 13.36 -43 12 C-34.33412606 8.69613556 -25.73742724 6.06459812 -16.72265625 3.9140625 C-12.73084176 2.93391078 -8.8273131 1.78061078 -4.91796875 0.515625 C-3 0 -3 0 0 0 Z " fill="#1D1D1D" transform="translate(190,537)"/>
<path d="M0 0 C1.16499023 0.29487305 1.16499023 0.29487305 2.35351562 0.59570312 C7.64802843 2.05270284 11.11586603 3.81605943 14.9375 7.8125 C16.75875928 13.45120103 14.45716651 20.64873899 11.9375 25.8125 C10.6640625 27.54296875 10.6640625 27.54296875 8.9375 28.8125 C6.44921875 29.18359375 6.44921875 29.18359375 3.625 29.25 C-0.07331059 29.4695567 -2.51272001 29.69321016 -5.5 31.9375 C-8.0625 33.8125 -8.0625 33.8125 -10.1015625 33.67578125 C-12.68887663 32.53674455 -12.98270051 31.46747289 -14 28.875 C-15.46876333 25.46310357 -15.46876333 25.46310357 -18.625 23.5625 C-19.429375 23.315 -20.23375 23.0675 -21.0625 22.8125 C-23.80861717 20.35046392 -24.05293764 18.891731 -24.5 15.1875 C-24.27300686 9.42619791 -22.37193425 3.24376221 -18.359375 -0.98046875 C-12.56982121 -4.02293835 -5.93444595 -1.65808123 0 0 Z " fill="#212121" transform="translate(263.0625,340.1875)"/>
<path d="M0 0 C2.45933768 0.156979 4.59895244 0.50868244 7 1 C7.88945313 1.11730469 8.77890625 1.23460937 9.6953125 1.35546875 C14.11046995 2.15549047 17.03013712 2.91141568 20.07421875 6.328125 C23.0370315 11.27305257 24.90349432 15.64375336 23.76171875 21.39453125 C19.4801444 36.03971119 19.4801444 36.03971119 17 41 C10.87401218 40.67182208 5.39324588 39.37219947 -0.4375 37.5625 C-1.14777344 37.34505127 -1.85804687 37.12760254 -2.58984375 36.90356445 C-7.74532065 35.25467935 -7.74532065 35.25467935 -10 33 C-9.70507772 25.79958038 -7.79766989 19.37726442 -5.5625 12.5625 C-5.09360352 11.07459961 -5.09360352 11.07459961 -4.61523438 9.55664062 C-2.26384086 2.26384086 -2.26384086 2.26384086 0 0 Z " fill="#1F1F1E" transform="translate(1092,267)"/>
<path d="M0 0 C0.66 0 1.32 0 2 0 C2.51046875 1.17755859 2.51046875 1.17755859 3.03125 2.37890625 C8.05320028 13.26425062 13.78827324 18.82155554 25 23 C25 23.66 25 24.32 25 25 C24.21496094 25.3403125 23.42992187 25.680625 22.62109375 26.03125 C11.73574938 31.05320028 6.17844446 36.78827324 2 48 C1.34 48 0.68 48 0 48 C-0.3403125 47.21496094 -0.680625 46.42992187 -1.03125 45.62109375 C-6.05320028 34.73574938 -11.78827324 29.17844446 -23 25 C-23 24.34 -23 23.68 -23 23 C-22.21496094 22.6596875 -21.42992187 22.319375 -20.62109375 21.96875 C-9.73574938 16.94679972 -4.17844446 11.21172676 0 0 Z " fill="#898989" transform="translate(1536,592)"/>
<path d="M0 0 C7.92 0 15.84 0 24 0 C24 8.25 24 16.5 24 25 C16.08 25 8.16 25 0 25 C0 16.75 0 8.5 0 0 Z " fill="#1F1F1F" transform="translate(1179,330)"/>
<path d="M0 0 C0.20625 0.763125 0.4125 1.52625 0.625 2.3125 C2.43070271 5.84182802 4.43768238 6.44148604 8 8 C8.66 8.66 9.32 9.32 10 10 C9.7005433 12.75500167 9.22617203 15.29886672 8.375 17.9375 C7.80753786 21.05854178 8.46384121 23.90219367 9 27 C7.68 27.33 6.36 27.66 5 28 C3.64560332 25.29120665 3.93498549 22.99066732 4 20 C1.58380177 19.74969023 1.58380177 19.74969023 -1 20 C-1.66 20.99 -2.32 21.98 -3 23 C-4.32 23 -5.64 23 -7 23 C-7 23.66 -7 24.32 -7 25 C-10.75 26.125 -10.75 26.125 -13 25 C-13 25.99 -13 26.98 -13 28 C-11.98679687 27.65775391 -11.98679687 27.65775391 -10.953125 27.30859375 C-10.06109375 27.02113281 -9.1690625 26.73367188 -8.25 26.4375 C-7.36828125 26.14746094 -6.4865625 25.85742188 -5.578125 25.55859375 C-2.92165684 24.98302565 -1.52968894 25.10751629 1 26 C-0.3706811 26.51172094 -1.74684075 27.00877492 -3.125 27.5 C-3.89070313 27.7784375 -4.65640625 28.056875 -5.4453125 28.34375 C-8.37413202 29.09610731 -10.98824867 29.10475657 -14 29 C-15.03980962 25.77663498 -16.05341411 22.54560225 -17.0625 19.3125 C-17.35705078 18.40048828 -17.65160156 17.48847656 -17.95507812 16.54882812 C-18.22900391 15.66259766 -18.50292969 14.77636719 -18.78515625 13.86328125 C-19.04176025 13.05157471 -19.29836426 12.23986816 -19.56274414 11.40356445 C-20.06336519 8.65168602 -19.70455274 6.68649931 -19 4 C-16.77332235 3.32506659 -14.54354023 2.66036956 -12.3125 2 C-10.45044922 1.443125 -10.45044922 1.443125 -8.55078125 0.875 C-5.4989981 0.12296543 -3.11101638 -0.19034899 0 0 Z " fill="#222221" transform="translate(1430,254)"/>
<path d="M0 0 C-0.30944701 2.58373234 -0.62243957 5.16695133 -0.9375 7.75 C-1.02451172 8.47960937 -1.11152344 9.20921875 -1.20117188 9.9609375 C-1.62027409 13.37584442 -2.117274 16.67603543 -3 20 C-5.49361571 18.79618552 -7.68143083 17.54571278 -10 16 C-10.66 17.32 -11.32 18.64 -12 20 C-12.66 20 -13.32 20 -14 20 C-14.27328125 20.57234375 -14.5465625 21.1446875 -14.828125 21.734375 C-16.97579985 25.88654638 -19.07440744 29.33643154 -23 32 C-27.7408979 32.68393281 -32.24483875 32.4748566 -37 32 C-35.51346494 28.53370165 -33.54277649 26.30977964 -30.8671875 23.671875 C-30.06152344 22.87265625 -29.25585938 22.0734375 -28.42578125 21.25 C-27.58402344 20.425 -26.74226563 19.6 -25.875 18.75 C-25.02550781 17.90953125 -24.17601562 17.0690625 -23.30078125 16.203125 C-21.20495077 14.13084317 -19.10459287 12.06337607 -17 10 C-18.39759905 6.45481116 -18.39759905 6.45481116 -20 3 C-17.41747107 2.49550598 -14.83411297 1.99625699 -12.25 1.5 C-11.52039063 1.35691406 -10.79078125 1.21382812 -10.0390625 1.06640625 C-6.60656468 0.41111121 -3.50830509 0 0 0 Z " fill="#191919" transform="translate(289,547)"/>
<path d="M0 0 C0.02578125 0.72703125 0.0515625 1.4540625 0.078125 2.203125 C0.46730176 9.10216752 1.7184811 14.94145887 4.16015625 21.40625 C5 24 5 24 5 28 C5.99 28.33 6.98 28.66 8 29 C7.95703125 30.828125 7.95703125 30.828125 7 33 C4.51530091 34.1389453 2.28325435 34.97782986 -0.3125 35.75 C-1.32860352 36.08064453 -1.32860352 36.08064453 -2.36523438 36.41796875 C-5.76076088 37.4867464 -8.40800513 38 -12 38 C-11.34 39.98 -10.68 41.96 -10 44 C-11.32 44 -12.64 44 -14 44 C-14 42.35 -14 40.7 -14 39 C-16.97 39.495 -16.97 39.495 -20 40 C-17.10764186 38.07176124 -14.97140935 37.25666356 -11.67578125 36.2734375 C-10.64775391 35.9640625 -9.61972656 35.6546875 -8.56054688 35.3359375 C-7.48869141 35.01882813 -6.41683594 34.70171875 -5.3125 34.375 C-4.22904297 34.05015625 -3.14558594 33.7253125 -2.02929688 33.390625 C0.64583071 32.5892652 3.32226138 31.79258275 6 31 C-2.3418693 32.45424322 -10.38212713 34.74184852 -18.5 37.125 C-21.00950271 37.85999815 -23.52007843 38.59100416 -26.03125 39.3203125 C-27.13017578 39.64273926 -28.22910156 39.96516602 -29.36132812 40.29736328 C-32 41 -32 41 -34 41 C-34 41.66 -34 42.32 -34 43 C-33.01 43.33 -32.02 43.66 -31 44 C-32.32 44 -33.64 44 -35 44 C-35.19335938 42.92621094 -35.38671875 41.85242188 -35.5859375 40.74609375 C-35.84877718 39.30986267 -36.11180824 37.8736666 -36.375 36.4375 C-36.50132812 35.73302734 -36.62765625 35.02855469 -36.7578125 34.30273438 C-37.39146703 30.86515856 -38.12069116 27.58614061 -39.1015625 24.22265625 C-40 21 -40 21 -40 17 C-40.99 16.67 -41.98 16.34 -43 16 C-43 14.68 -43 13.36 -43 12 C-34.33412606 8.69613556 -25.73742724 6.06459812 -16.72265625 3.9140625 C-12.73084176 2.93391078 -8.8273131 1.78061078 -4.91796875 0.515625 C-3 0 -3 0 0 0 Z M-12.33984375 7.6796875 C-13.56767578 8.03160156 -14.79550781 8.38351562 -16.06054688 8.74609375 C-16.69726318 8.93155762 -17.33397949 9.11702148 -17.98999023 9.30810547 C-19.92588138 9.87161797 -21.86403739 10.42669597 -23.80273438 10.98046875 C-31.50241492 13.1950758 -31.50241492 13.1950758 -39 16 C-38.37851697 18.70918332 -37.75293439 21.41731127 -37.125 24.125 C-36.86396484 25.26582031 -36.86396484 25.26582031 -36.59765625 26.4296875 C-35.60201572 30.70725424 -34.47028611 34.85405809 -33 39 C-24.76618806 37.57578592 -16.86462453 35.29583913 -8.875 32.875 C-7.63234375 32.50246094 -6.3896875 32.12992188 -5.109375 31.74609375 C-2.07167171 30.83478276 0.96471808 29.91933713 4 29 C3.37650642 26.47878568 2.75124639 23.95803069 2.125 21.4375 C1.95097656 20.73302734 1.77695313 20.02855469 1.59765625 19.30273438 C0.48705185 14.83975002 -0.71201216 10.41512948 -2 6 C-5.91721377 6 -8.6020344 6.60390807 -12.33984375 7.6796875 Z " fill="#343434" transform="translate(190,537)"/>
<path d="M0 0 C1.875 0.125 1.875 0.125 4 1 C5.25 4.0625 5.25 4.0625 6 7 C8.64 7 11.28 7 14 7 C14 7.66 14 8.32 14 9 C12.35 9.33 10.7 9.66 9 10 C9 10.99 9 11.98 9 13 C8.34 13 7.68 13 7 13 C7.33 15.64 7.66 18.28 8 21 C5 22 5 22 2.6875 21.0625 C-0.37756511 19.85073007 -2.73368961 19.84807859 -6 20 C-6.1450037 22.88067404 -6.1450037 22.88067404 -5.375 25.0625 C-5.25125 25.701875 -5.1275 26.34125 -5 27 C-5.66 27.66 -6.32 28.32 -7 29 C-9 28.875 -9 28.875 -11 28 C-12.72101535 25.41847698 -13 24.15081975 -13 21 C-13.78375 20.9175 -14.5675 20.835 -15.375 20.75 C-18 20 -18 20 -19.3125 18.1875 C-20 16 -20 16 -20 12 C-18.97519531 11.63648437 -17.95039062 11.27296875 -16.89453125 10.8984375 C-15.53350141 10.39157121 -14.17284358 9.88370523 -12.8125 9.375 C-11.80219727 9.02115234 -11.80219727 9.02115234 -10.77148438 8.66015625 C-5.67533439 6.72113333 -3.18905125 4.42132542 0 0 Z " fill="#2F2F2F" transform="translate(1559,55)"/>
<path d="M0 0 C0 3.3 0 6.6 0 10 C-0.66 10 -1.32 10 -2 10 C-2 8.68 -2 7.36 -2 6 C-2.57105469 6.19335938 -3.14210937 6.38671875 -3.73046875 6.5859375 C-8.55721688 8.13602195 -13.22332248 9.25288503 -18.25 9.9375 C-24.40180769 10.79232363 -30.17189436 12.36977422 -36.1015625 14.1953125 C-39 15 -39 15 -42 15 C-41.81640625 13.125 -41.81640625 13.125 -41 11 C-38.83984375 9.875 -38.83984375 9.875 -35.9375 9 C-34.85597656 8.67128906 -33.77445313 8.34257813 -32.66015625 8.00390625 C-28.06164712 6.74262893 -23.44789844 5.56030962 -18.81347656 4.43847656 C-14.11937335 3.30181841 -9.51224425 2.00224082 -4.91796875 0.515625 C-3 0 -3 0 0 0 Z " fill="#343434" transform="translate(190,537)"/>
<path d="M0 0 C0.33 0 0.66 0 1 0 C1.33 29.7 1.66 59.4 2 90 C7.94 84.06 13.88 78.12 20 72 C24.44823422 73.77929369 25.67366569 74.35023179 28.625 77.625 C30.27593036 79.52670462 30.27593036 79.52670462 32 81 C32.99 81 33.98 81 35 81 C35 81.66 35 82.32 35 83 C34.01 83.33 33.02 83.66 32 84 C29.9921875 82.671875 29.9921875 82.671875 27.875 80.75 C27.17117187 80.12609375 26.46734375 79.5021875 25.7421875 78.859375 C24 77 24 77 23 74 C19.13330218 76.12743608 16.23280375 78.53193427 13.13671875 81.66796875 C12.25048828 82.56064453 11.36425781 83.45332031 10.45117188 84.37304688 C9.0831543 85.76620117 9.0831543 85.76620117 7.6875 87.1875 C6.7472112 88.1378315 5.80646029 89.087706 4.86523438 90.03710938 C2.57224041 92.35362123 0.28405348 94.67467801 -2 97 C-2.66 96.67 -3.32 96.34 -4 96 C-3.51169708 95.61926331 -3.02339417 95.23852661 -2.52029419 94.84625244 C-0.433963 92.312602 -0.64380603 90.71749923 -0.67529297 87.45996094 C-0.67870697 86.31802277 -0.68212097 85.17608459 -0.68563843 83.99954224 C-0.70429962 82.75703705 -0.72296082 81.51453186 -0.7421875 80.234375 C-0.75287137 78.2596475 -0.76354668 76.28491992 -0.77381325 74.3101902 C-0.7873479 72.21950317 -0.80803346 70.1289968 -0.83081055 68.03839111 C-0.89980632 61.64504905 -0.92512989 55.25148798 -0.95186615 48.85785294 C-0.95791588 47.45732505 -0.96451316 46.05679943 -0.9716568 44.6562767 C-1.04733851 29.75131815 -0.73405553 14.88805186 0 0 Z " fill="#232323" transform="translate(227,456)"/>
<path d="M0 0 C2 1 2 1 2.8515625 3.2578125 C4.31010352 8.66472719 5.37350585 13.39741222 5 19 C4.01 18.67 3.02 18.34 2 18 C1.3125 15.9375 1.3125 15.9375 1 14 C1 14.99 1 15.98 1 17 C-2.63 17 -6.26 17 -10 17 C-10.66 14.69 -11.32 12.38 -12 10 C-11.30132813 9.61328125 -10.60265625 9.2265625 -9.8828125 8.828125 C-8.97273438 8.30734375 -8.06265625 7.7865625 -7.125 7.25 C-6.22007813 6.73953125 -5.31515625 6.2290625 -4.3828125 5.703125 C-1.92029011 3.94302703 -1.05532477 2.78993906 0 0 Z " fill="#1B1B1B" transform="translate(1560,56)"/>
<path d="M0 0 C0.66 0.33 1.32 0.66 2 1 C2 1.66 2 2.32 2 3 C3.98 2.01 5.96 1.02 8 0 C7.34 1.65 6.68 3.3 6 5 C7.98 4.67 9.96 4.34 12 4 C13.62950412 8.12168689 14.26264601 10.70700357 13 15 C12.01 15 11.02 15 10 15 C8.64560332 12.29120665 8.93498549 9.99066732 9 7 C6.58380177 6.74969023 6.58380177 6.74969023 4 7 C3.01 8.485 3.01 8.485 2 10 C0.68 10 -0.64 10 -2 10 C-2 10.66 -2 11.32 -2 12 C-3.32 12.33 -4.64 12.66 -6 13 C-6 12.34 -6 11.68 -6 11 C-5.34 11 -4.68 11 -4 11 C-4 10.34 -4 9.68 -4 9 C-4.99 9.33 -5.98 9.66 -7 10 C-6.67 8.35 -6.34 6.7 -6 5 C-6.99 4.67 -7.98 4.34 -9 4 C-8.67 3.01 -8.34 2.02 -8 1 C-5.26094655 -0.36952673 -3.02912668 -0.12621361 0 0 Z " fill="#252524" transform="translate(1425,267)"/>
<path d="M0 0 C1.15530283 2.22808402 2.04803656 4.18341232 2.6875 6.625 C3.88555094 9.40841881 3.88555094 9.40841881 7.625 10.3125 C8.73875 10.539375 9.8525 10.76625 11 11 C10.67 11.66 10.34 12.32 10 13 C8.865625 13.37125 7.73125 13.7425 6.5625 14.125 C4.08974586 15.09281976 3.21846767 15.52445615 2.09375 17.97265625 C1.46809729 20.4365345 1.46809729 20.4365345 1 24 C-1 22 -1 22 -1.9375 19 C-2.75927075 15.72778248 -2.75927075 15.72778248 -6 14 C-7.65549531 13.61500109 -9.3222433 13.27206865 -11 13 C-11 12.34 -11 11.68 -11 11 C-9.741875 10.67 -8.48375 10.34 -7.1875 10 C-4.49584383 9.02338139 -3.29976478 8.49505128 -1.80078125 6.01953125 C-0.87522247 3.57347894 -0.87522247 3.57347894 0 0 Z " fill="#8274BE" transform="translate(1080,361)"/>
<path d="M0 0 C0.33 0 0.66 0 1 0 C1.11214844 0.75925781 1.22429687 1.51851563 1.33984375 2.30078125 C1.96281995 5.44009269 2.61761431 8.10722994 4 11 C6.87423725 12.82442719 9.65045825 13.51547509 13 14 C13 14.33 13 14.66 13 15 C12.38511719 15.12375 11.77023438 15.2475 11.13671875 15.375 C6.1833674 16.52702031 6.1833674 16.52702031 2.734375 19.98046875 C1.80866734 22.42318945 1.80866734 22.42318945 1 26 C0.67 26 0.34 26 0 26 C-0.28875 24.88625 -0.5775 23.7725 -0.875 22.625 C-1.69241329 18.99708908 -1.69241329 18.99708908 -4 17 C-6.19704511 16.32348793 -6.19704511 16.32348793 -8.625 15.875 C-9.85089844 15.62363281 -9.85089844 15.62363281 -11.1015625 15.3671875 C-11.72804687 15.24601562 -12.35453125 15.12484375 -13 15 C-13 14.67 -13 14.34 -13 14 C-11.95199219 13.74476563 -11.95199219 13.74476563 -10.8828125 13.484375 C-9.51769531 13.12085938 -9.51769531 13.12085938 -8.125 12.75 C-7.22007812 12.51796875 -6.31515625 12.2859375 -5.3828125 12.046875 C-2.89820769 11.20589983 -2.89820769 11.20589983 -1.71875 9.125 C-0.70595217 6.13064121 -0.36132775 3.13150719 0 0 Z " fill="#5D81A7" transform="translate(191,440)"/>
<path d="M0 0 C2 1 2 1 2.60546875 2.77734375 C2.79753906 3.49019531 2.98960938 4.20304688 3.1875 4.9375 C3.8649504 7.12638196 3.8649504 7.12638196 5 9 C8.54863159 10.61135346 8.54863159 10.61135346 12 11 C9.35122304 12.41898766 6.91985181 13.31911019 4 14 C3.87882812 14.71027344 3.75765625 15.42054688 3.6328125 16.15234375 C3.38144531 17.53099609 3.38144531 17.53099609 3.125 18.9375 C2.96257812 19.85402344 2.80015625 20.77054688 2.6328125 21.71484375 C2.42398437 22.46894531 2.21515625 23.22304687 2 24 C1.34 24.33 0.68 24.66 0 25 C-0.08636719 24.38511719 -0.17273437 23.77023438 -0.26171875 23.13671875 C-1.0475166 17.89119276 -1.0475166 17.89119276 -4.4375 14.0625 C-5.283125 13.711875 -6.12875 13.36125 -7 13 C-7.99 12.34 -8.98 11.68 -10 11 C-7.36 10.34 -4.72 9.68 -2 9 C-1.34 6.03 -0.68 3.06 0 0 Z " fill="#557096" transform="translate(1510,158)"/>
<path d="M0 0 C3.68754757 0.49831724 5.60490662 1.10067643 8 4 C7.67 4.99 7.34 5.98 7 7 C6.67 5.68 6.34 4.36 6 3 C4.68 2.67 3.36 2.34 2 2 C2 3.98 2 5.96 2 8 C3.32 8.33 4.64 8.66 6 9 C5.42655063 11.86724686 5.1385485 12.8614515 3 15 C0.0625 15.375 0.0625 15.375 -3 15 C-4.9375 13.3125 -4.9375 13.3125 -6 11 C-5.9375 8.375 -5.9375 8.375 -5 6 C-3.68352881 5.30062468 -2.34977849 4.63270867 -1 4 C-0.19471111 1.94999129 -0.19471111 1.94999129 0 0 Z " fill="#272726" transform="translate(163,555)"/>
<path d="M0 0 C4.31083215 0.50715672 8.11660277 1.01791406 12 3 C15.25806147 7.16307854 17.48289345 12.02720421 17.0625 17.375 C16.01832877 23.07699387 13.97703353 28.56545666 12 34 C10.20658562 29.83326479 11.98826616 26.25336659 13.4375 22.25 C13.80198242 21.20392578 13.80198242 21.20392578 14.17382812 20.13671875 C14.77310248 18.42114902 15.38529885 16.71010285 16 15 C15.05125 14.855625 14.1025 14.71125 13.125 14.5625 C10 14 10 14 8 13 C8.875 6.25 8.875 6.25 10 4 C6.7 3.01 3.4 2.02 0 1 C0 0.67 0 0.34 0 0 Z " fill="#2E2E2E" transform="translate(1099,269)"/>
<path d="M0 0 C0.21432579 6.64409958 -0.48766299 12.53205867 -2 19 C-4.31 18.34 -6.62 17.68 -9 17 C-10.48219967 18.45525059 -11.96067139 19.914299 -13.4375 21.375 C-14.26121094 22.18710937 -15.08492188 22.99921875 -15.93359375 23.8359375 C-18.03434672 25.82348515 -18.03434672 25.82348515 -19 28 C-19.66 27.67 -20.32 27.34 -21 27 C-17.13635705 22.51282966 -13.25209792 18.12324647 -9 14 C-7 15 -5 16 -3 17 C-2.90912109 15.62714844 -2.90912109 15.62714844 -2.81640625 14.2265625 C-2.73261719 13.03804687 -2.64882813 11.84953125 -2.5625 10.625 C-2.48128906 9.44164062 -2.40007812 8.25828125 -2.31640625 7.0390625 C-2 4 -2 4 -1 2 C-5.29 2.66 -9.58 3.32 -14 4 C-14 4.66 -14 5.32 -14 6 C-14 7.32 -14 8.64 -14 10 C-14.99 10.495 -14.99 10.495 -16 11 C-16.12375 10.2575 -16.2475 9.515 -16.375 8.75 C-16.9578376 6.18551458 -17.78664449 4.30833488 -19 2 C-16.58374679 1.66340751 -14.16707192 1.33061612 -11.75 1 C-10.72712891 0.85691406 -10.72712891 0.85691406 -9.68359375 0.7109375 C-6.40628012 0.2654774 -3.31615847 0 0 0 Z " fill="#333333" transform="translate(288,516)"/>
<path d="M0 0 C-5.16115944 2.32798329 -10.31376045 4.11734704 -15.75 5.6875 C-16.88115234 6.02491211 -16.88115234 6.02491211 -18.03515625 6.36914062 C-21.11161361 7.26803447 -23.7780402 8 -27 8 C-27 8.66 -27 9.32 -27 10 C-28.76774419 10.53122363 -30.53934083 11.04964073 -32.3125 11.5625 C-33.29863281 11.85253906 -34.28476563 12.14257812 -35.30078125 12.44140625 C-38 13 -38 13 -41 12 C-41 11.34 -41 10.68 -41 10 C-40.34104736 9.80889648 -39.68209473 9.61779297 -39.00317383 9.42089844 C-37.0433049 8.8520864 -35.08360216 8.28270161 -33.12402344 7.71289062 C-30.91273916 7.06991619 -28.70114914 6.42799237 -26.48925781 5.78710938 C-19.74418887 3.82570644 -13.04418654 1.78546211 -6.390625 -0.46875 C-3.84181438 -1.03515236 -2.43541662 -0.86491431 0 0 Z " fill="#212121" transform="translate(197,568)"/>
<path d="M0 0 C1.32 1.32 2.64 2.64 4 4 C-1.91781611 11.08470943 -8.43141333 17.52848604 -15 24 C-11.51814214 24.49740827 -9.36931314 24.7740314 -6 24 C-2.56907339 21.35725924 0.22115404 18.3109654 3 15 C3 19.57457018 0.68717052 21.78150473 -2.2890625 25.1015625 C-7.34495409 28.64214364 -13.10441186 27.67070595 -19 27 C-17.52254717 23.52269355 -15.57926478 21.4166398 -12.83203125 18.84765625 C-11.61676758 17.68266602 -11.61676758 17.68266602 -10.37695312 16.49414062 C-8.66307915 14.86902783 -6.94165155 13.25184543 -5.21289062 11.64257812 C-4.40658203 10.86462891 -3.60027344 10.08667969 -2.76953125 9.28515625 C-2.02292236 8.58269775 -1.27631348 7.88023926 -0.50708008 7.15649414 C1.30715098 5.05666099 1.30715098 5.05666099 0.7355957 2.23217773 C0.49284912 1.49555908 0.25010254 0.75894043 0 0 Z " fill="#343434" transform="translate(271,552)"/>
<path d="M0 0 C-0.33 1.32 -0.66 2.64 -1 4 C-1 3.01 -1 2.02 -1 1 C-6.28 2.65 -11.56 4.3 -17 6 C-16.36551109 11.07591128 -15.84124958 15.07230215 -14.4375 19.8125 C-13.56962189 22.75664152 -13 24.91715627 -13 28 C-11.98679687 27.65775391 -11.98679687 27.65775391 -10.953125 27.30859375 C-10.06109375 27.02113281 -9.1690625 26.73367188 -8.25 26.4375 C-7.36828125 26.14746094 -6.4865625 25.85742188 -5.578125 25.55859375 C-2.92165684 24.98302565 -1.52968894 25.10751629 1 26 C-0.3706811 26.51172094 -1.74684075 27.00877492 -3.125 27.5 C-3.89070313 27.7784375 -4.65640625 28.056875 -5.4453125 28.34375 C-8.37413202 29.09610731 -10.98824867 29.10475657 -14 29 C-15.03980962 25.77663498 -16.05341411 22.54560225 -17.0625 19.3125 C-17.35705078 18.40048828 -17.65160156 17.48847656 -17.95507812 16.54882812 C-18.22900391 15.66259766 -18.50292969 14.77636719 -18.78515625 13.86328125 C-19.04176025 13.05157471 -19.29836426 12.23986816 -19.56274414 11.40356445 C-20.06336519 8.65168602 -19.70455274 6.68649931 -19 4 C-16.77332235 3.32506659 -14.54354023 2.66036956 -12.3125 2 C-10.45044922 1.443125 -10.45044922 1.443125 -8.55078125 0.875 C-5.4989981 0.12296543 -3.11101638 -0.19034899 0 0 Z " fill="#353534" transform="translate(1430,254)"/>
<path d="M0 0 C0 0.66 0 1.32 0 2 C-8.83059254 5.10858865 -17.72139899 7.8377529 -26.75 10.3125 C-27.71437988 10.57885254 -28.67875977 10.84520508 -29.67236328 11.11962891 C-31.03337158 11.48773682 -31.03337158 11.48773682 -32.421875 11.86328125 C-33.63762207 12.19259644 -33.63762207 12.19259644 -34.87792969 12.52856445 C-37 13 -37 13 -40 13 C-40 12.34 -40 11.68 -40 11 C-4.41694772 0 -4.41694772 0 0 0 Z " fill="#1E1E1E" transform="translate(188,539)"/>
<path d="M0 0 C6.04801071 0.54981916 11.30601106 1.90429574 17 4 C16.67 5.32 16.34 6.64 16 8 C9.95198929 7.45018084 4.69398894 6.09570426 -1 4 C-0.67 2.68 -0.34 1.36 0 0 Z " fill="#313131" transform="translate(251,348)"/>
<path d="M0 0 C4.44823422 1.77929369 5.67366569 2.35023179 8.625 5.625 C10.27593036 7.52670462 10.27593036 7.52670462 12 9 C12.99 9 13.98 9 15 9 C15 9.66 15 10.32 15 11 C14.01 11.33 13.02 11.66 12 12 C9.9921875 10.671875 9.9921875 10.671875 7.875 8.75 C7.17117187 8.12609375 6.46734375 7.5021875 5.7421875 6.859375 C4 5 4 5 3 2 C-0.86669782 4.12743608 -3.76719625 6.53193427 -6.86328125 9.66796875 C-7.74951172 10.56064453 -8.63574219 11.45332031 -9.54882812 12.37304688 C-10.46083984 13.30181641 -11.37285156 14.23058594 -12.3125 15.1875 C-13.2527888 16.1378315 -14.19353971 17.087706 -15.13476562 18.03710938 C-17.42775959 20.35362123 -19.71594652 22.67467801 -22 25 C-22.66 24.67 -23.32 24.34 -24 24 C-16.08 16.08 -8.16 8.16 0 0 Z " fill="#323232" transform="translate(247,528)"/>
<path d="M0 0 C-0.30944701 2.58373234 -0.62243957 5.16695133 -0.9375 7.75 C-1.02451172 8.47960937 -1.11152344 9.20921875 -1.20117188 9.9609375 C-1.62027409 13.37584442 -2.117274 16.67603543 -3 20 C-5.49361571 18.79618552 -7.68143083 17.54571278 -10 16 C-10 15.34 -10 14.68 -10 14 C-6.125 15.875 -6.125 15.875 -5 17 C-4.01 12.05 -3.02 7.1 -2 2 C-7.61 2.99 -13.22 3.98 -19 5 C-19.33 4.34 -19.66 3.68 -20 3 C-17.41747107 2.49550598 -14.83411297 1.99625699 -12.25 1.5 C-11.52039063 1.35691406 -10.79078125 1.21382812 -10.0390625 1.06640625 C-6.60656468 0.41111121 -3.50830509 0 0 0 Z " fill="#323232" transform="translate(289,547)"/>
<path d="M0 0 C2.31 0 4.62 0 7 0 C7.33 1.65 7.66 3.3 8 5 C7.34 5 6.68 5 6 5 C6 3.68 6 2.36 6 1 C4.68 1 3.36 1 2 1 C1.34 2.65 0.68 4.3 0 6 C-2.31 6 -4.62 6 -7 6 C-6.95875 6.928125 -6.9175 7.85625 -6.875 8.8125 C-7 12 -7 12 -9 15 C-9.66 15 -10.32 15 -11 15 C-11 16.32 -11 17.64 -11 19 C-10.34 19.33 -9.68 19.66 -9 20 C-10.32 20 -11.64 20 -13 20 C-13 18.02 -13 16.04 -13 14 C-11.68 13.67 -10.36 13.34 -9 13 C-9.20625 11.88625 -9.4125 10.7725 -9.625 9.625 C-9.74875 8.42875 -9.8725 7.2325 -10 6 C-8 4 -8 4 -6.0546875 3.8046875 C-4.03645833 3.86979167 -2.01822917 3.93489583 0 4 C0 2.68 0 1.36 0 0 Z " fill="#3B3B3A" transform="translate(1171,310)"/>
<path d="M0 0 C0.66 0 1.32 0 2 0 C2.33 1.98 2.66 3.96 3 6 C5.97 6.495 5.97 6.495 9 7 C9.33 9.64 9.66 12.28 10 15 C10.99 15 11.98 15 13 15 C12.01 12.03 11.02 9.06 10 6 C13.63 6 17.26 6 21 6 C21 6.33 21 6.66 21 7 C18.69 7.33 16.38 7.66 14 8 C13.8549963 10.88067404 13.8549963 10.88067404 14.625 13.0625 C14.74875 13.701875 14.8725 14.34125 15 15 C14.34 15.66 13.68 16.32 13 17 C11 16.875 11 16.875 9 16 C7.27898465 13.41847698 7 12.15081975 7 9 C6.21625 8.9175 5.4325 8.835 4.625 8.75 C2 8 2 8 0.6875 6.1875 C0 4 0 4 0 0 Z " fill="#313131" transform="translate(1539,67)"/>
<path d="M0 0 C0 3 0 3 -1 5 C0.98 4.67 2.96 4.34 5 4 C6.62950412 8.12168689 7.26264601 10.70700357 6 15 C5.01 15 4.02 15 3 15 C1.64560332 12.29120665 1.93498549 9.99066732 2 7 C0.35 6.67 -1.3 6.34 -3 6 C-3.33 5.01 -3.66 4.02 -4 3 C-2.68 2.01 -1.36 1.02 0 0 Z " fill="#3A3A39" transform="translate(1432,267)"/>
<path d="M0 0 C-0.6796875 1.921875 -0.6796875 1.921875 -2 4 C-4.3828125 4.828125 -4.3828125 4.828125 -7.125 5.25 C-8.03507812 5.39953125 -8.94515625 5.5490625 -9.8828125 5.703125 C-10.58148437 5.80109375 -11.28015625 5.8990625 -12 6 C-12.33 4.68 -12.66 3.36 -13 2 C-11.906875 1.690625 -10.81375 1.38125 -9.6875 1.0625 C-2.78181818 -0.92727273 -2.78181818 -0.92727273 0 0 Z " fill="#2C2B2B" transform="translate(1427,260)"/>
<path d="M0 0 C0.66 0.99 1.32 1.98 2 3 C4.56282742 3.72965366 4.56282742 3.72965366 7 4 C5.71700242 6.86207152 4.469364 9.0245088 2 11 C1.01 11 0.02 11 -1 11 C-1 9.35 -1 7.7 -1 6 C-1.66 6 -2.32 6 -3 6 C-3 5.34 -3 4.68 -3 4 C-2.34 3.67 -1.68 3.34 -1 3 C-0.67 2.01 -0.34 1.02 0 0 Z " fill="#2F2A41" transform="translate(1100,395)"/>
<path d="M0 0 C0.38063221 2.3260857 0.71269945 4.66055264 1 7 C0 8 0 8 -2.5 8.125 C-5 8 -5 8 -6 7 C-6.04080783 5.00041636 -6.04254356 2.99954746 -6 1 C-3 0 -3 0 0 0 Z " fill="#1A1A1A" transform="translate(1547,66)"/>
<path d="M0 0 C0 4.57457018 -2.31282948 6.78150473 -5.2890625 10.1015625 C-10.34495409 13.64214364 -16.10441186 12.67070595 -22 12 C-21.67 11.34 -21.34 10.68 -21 10 C-19.16805637 9.92565164 -17.33333333 9.91666667 -15.5 9.9375 C-10.01992553 9.62285458 -7.58938889 8.350253 -3.75 4.4375 C-2.47072782 2.98357541 -1.20978676 1.51223345 0 0 Z " fill="#2A2A2A" transform="translate(274,567)"/>
<path d="M0 0 C3.68754757 0.49831724 5.60490662 1.10067643 8 4 C7.67 4.99 7.34 5.98 7 7 C6.67 5.68 6.34 4.36 6 3 C4.68 2.67 3.36 2.34 2 2 C2 3.98 2 5.96 2 8 C3.32 8.33 4.64 8.66 6 9 C5.67 10.32 5.34 11.64 5 13 C4.67 12.34 4.34 11.68 4 11 C1.97536745 10.34786708 1.97536745 10.34786708 0 10 C-1.2380014 6.42355152 -0.74926071 3.66305234 0 0 Z " fill="#393938" transform="translate(163,555)"/>
<path d="M0 0 C2.37875755 2.37875755 2.28403059 3.12466032 2.5 6.375 C2.7285025 9.79111235 3.45298327 11.96834625 5 15 C5 15.99 5 16.98 5 18 C4.01 18 3.02 18 2 18 C0.13216954 12.51324804 -0.2358396 7.77807024 0 2 C-1.98 2.33 -3.96 2.66 -6 3 C-3.86437246 0.86437246 -2.93453261 0.36681658 0 0 Z " fill="#2E2E2D" transform="translate(1547,64)"/>
<path d="M0 0 C0.66 0.33 1.32 0.66 2 1 C1.67 2.98 1.34 4.96 1 7 C2.258125 7.0825 3.51625 7.165 4.8125 7.25 C8.7400979 7.71410769 8.7400979 7.71410769 10.875 10.0625 C11.24625 10.701875 11.6175 11.34125 12 12 C12.66 12 13.32 12 14 12 C14 12.66 14 13.32 14 14 C12.35 13.67 10.7 13.34 9 13 C9 12.01 9 11.02 9 10 C7.081875 10.061875 7.081875 10.061875 5.125 10.125 C2.9453125 10.1953125 2.9453125 10.1953125 1 10 C0.34 9.34 -0.32 8.68 -1 8 C-0.96712417 5.27130593 -0.43602229 2.7033382 0 0 Z " fill="#3D3D3D" transform="translate(1162,330)"/>
<path d="M0 0 C1.32 0.66 2.64 1.32 4 2 C3.67 4.31 3.34 6.62 3 9 C1.02 9.33 -0.96 9.66 -3 10 C-1.25 5.125 -1.25 5.125 1 4 C0.67 2.68 0.34 1.36 0 0 Z " fill="#1C1B1B" transform="translate(1434,262)"/>
<path d="M0 0 C0.66 0 1.32 0 2 0 C0.45730076 4.72065967 -1.07794619 9.41664092 -3 14 C-3.66 13.34 -4.32 12.68 -5 12 C-4.57041201 8.13370807 -2.74326929 2.74326929 0 0 Z " fill="#29243D" transform="translate(1084,375)"/>
<path d="M0 0 C0.66 1.32 1.32 2.64 2 4 C2.66 4 3.32 4 4 4 C2.25 7.875 2.25 7.875 0 9 C-1.5 7.625 -1.5 7.625 -3 6 C-3 5.34 -3 4.68 -3 4 C-2.34 3.67 -1.68 3.34 -1 3 C-0.67 2.01 -0.34 1.02 0 0 Z " fill="#656A9B" transform="translate(1491,195)"/>
<path d="M0 0 C1.625 1.6875 1.625 1.6875 3 4 C2.1875 6.75 2.1875 6.75 1 9 C0.34 8.67 -0.32 8.34 -1 8 C-1 7.34 -1 6.68 -1 6 C-1.99 5.67 -2.98 5.34 -4 5 C-3.01 4.67 -2.02 4.34 -1 4 C-0.26676204 1.98491642 -0.26676204 1.98491642 0 0 Z " fill="#57739A" transform="translate(211,480)"/>
<path d="M0 0 C2.0625 0.4375 2.0625 0.4375 4 1 C3.67 2.65 3.34 4.3 3 6 C2.01 6 1.02 6 0 6 C-0.38218767 4.34385343 -0.71395102 2.67542976 -1 1 C-0.67 0.67 -0.34 0.34 0 0 Z " fill="#373736" transform="translate(1183,333)"/>
<path d="M0 0 C1.98 0 3.96 0 6 0 C6.33 0.99 6.66 1.98 7 3 C5.68 2.67 4.36 2.34 3 2 C2.67 2.99 2.34 3.98 2 5 C1.01 4.67 0.02 4.34 -1 4 C-0.67 2.68 -0.34 1.36 0 0 Z " fill="#343434" transform="translate(1415,261)"/>
<path d="M0 0 C1.32 0.33 2.64 0.66 4 1 C4.33 2.65 4.66 4.3 5 6 C4.01 6.495 4.01 6.495 3 7 C2.01 6.67 1.02 6.34 0 6 C0 4.02 0 2.04 0 0 Z " fill="#232423" transform="translate(165,557)"/>
<path d="M0 0 C2.0625 1.6875 2.0625 1.6875 4 4 C3.75 6.75 3.75 6.75 3 9 C2.01 9 1.02 9 0 9 C0 6.03 0 3.06 0 0 Z " fill="#2A2A29" transform="translate(1435,273)"/>
<path d="M0 0 C0.99 0.33 1.98 0.66 3 1 C3 3.97 3 6.94 3 10 C2.01 10.495 2.01 10.495 1 11 C-0.28317892 7.15046324 -0.06643637 4.05261865 0 0 Z " fill="#28333F" transform="translate(190,461)"/>
<path d="M0 0 C1.625 1.6875 1.625 1.6875 3 4 C2.1875 6.75 2.1875 6.75 1 9 C-1 7.625 -1 7.625 -3 6 C-3 5.34 -3 4.68 -3 4 C-2.34 3.67 -1.68 3.34 -1 3 C-0.67 2.01 -0.34 1.02 0 0 Z " fill="#7D6EB0" transform="translate(1100,395)"/>
<path d="M0 0 C1.258125 -0.04125 2.51625 -0.0825 3.8125 -0.125 C4.52019531 -0.14820313 5.22789063 -0.17140625 5.95703125 -0.1953125 C8 0 8 0 11 2 C10 3 10 3 7.93359375 3.09765625 C7.10988281 3.08605469 6.28617188 3.07445312 5.4375 3.0625 C4.61121094 3.05347656 3.78492188 3.04445312 2.93359375 3.03515625 C2.29550781 3.02355469 1.65742187 3.01195312 1 3 C0.67 2.01 0.34 1.02 0 0 Z " fill="#272F3C" transform="translate(1517,168)"/>
<path d="M0 0 C1.32 0 2.64 0 4 0 C4.33 1.65 4.66 3.3 5 5 C3.02 5.99 3.02 5.99 1 7 C1 6.34 1 5.68 1 5 C0.34 5 -0.32 5 -1 5 C-0.67 3.35 -0.34 1.7 0 0 Z " fill="#212120" transform="translate(1427,255)"/>
<path d="M0 0 C0.99 0 1.98 0 3 0 C4.4606285 2.64738916 5 3.89448334 5 7 C4.01 7 3.02 7 2 7 C1.34 4.69 0.68 2.38 0 0 Z " fill="#1D1D1D" transform="translate(1547,75)"/>
<path d="M0 0 C2.15377564 2.62198774 3.40072174 4.64404172 4 8 C1.525 7.01 1.525 7.01 -1 6 C-0.67 4.02 -0.34 2.04 0 0 Z " fill="#1A1A1A" transform="translate(1110,275)"/>
<path d="M0 0 C1.65 0 3.3 0 5 0 C4.67 1.32 4.34 2.64 4 4 C2.35 3.67 0.7 3.34 -1 3 C-0.67 2.01 -0.34 1.02 0 0 Z " fill="#333231" transform="translate(1417,268)"/>
<path d="M0 0 C2 3.75 2 3.75 2 6 C0.70766393 7.37310707 -0.62437146 8.71034824 -2 10 C-2.66 9.67 -3.32 9.34 -4 9 C-3.34 8.01 -2.68 7.02 -2 6 C-1.29835358 4.01200182 -0.62627128 2.01301483 0 0 Z " fill="#756CA3" transform="translate(1080,361)"/>
<path d="M0 0 C2.475 0.495 2.475 0.495 5 1 C4.67 1.99 4.34 2.98 4 4 C2.68 4 1.36 4 0 4 C0 2.68 0 1.36 0 0 Z " fill="#383737" transform="translate(1182,347)"/>
<path d="M0 0 C1.32 0 2.64 0 4 0 C3.67 1.32 3.34 2.64 3 4 C1.68 4 0.36 4 -1 4 C-0.67 2.68 -0.34 1.36 0 0 Z " fill="#323232" transform="translate(1424,273)"/>
<path d="M0 0 C1.32 0.66 2.64 1.32 4 2 C3.67 2.66 3.34 3.32 3 4 C-0.0625 4.625 -0.0625 4.625 -3 5 C-2.67 4.34 -2.34 3.68 -2 3 C-1.34 3 -0.68 3 0 3 C0 2.01 0 1.02 0 0 Z " fill="#1D2328" transform="translate(185,456)"/>
<path d="M0 0 C0.33 0 0.66 0 1 0 C1 1.65 1 3.3 1 5 C2.65 5 4.3 5 6 5 C6 5.33 6 5.66 6 6 C4.35 6 2.7 6 1 6 C0.67 7.32 0.34 8.64 0 10 C0 8.68 0 7.36 0 6 C-0.66 5.67 -1.32 5.34 -2 5 C-1.34 5 -0.68 5 0 5 C0 3.35 0 1.7 0 0 Z " fill="#212120" transform="translate(897,32)"/>
</svg>
